<svg width="248" height="59" viewBox="0 0 248 59" fill="none" xmlns="http://www.w3.org/2000/svg">
<g clip-path="url(#clip0_2265_69855)">
<path d="M25.4247 53.2114L40.8144 44.4451C42.0688 43.7276 42.0591 41.9119 40.79 41.2188L25.1708 32.6429C24.1361 32.0767 22.8719 32.8235 22.8719 34.0047V51.7324C22.8719 53.0454 24.2874 53.8654 25.4247 53.2163V53.2114Z" fill="white"/>
<path d="M72.2105 53.2114L56.8207 44.4451C55.5663 43.7276 55.5761 41.9119 56.8451 41.2188L72.4643 32.6429C73.4991 32.0767 74.7633 32.8235 74.7633 34.0047V51.7324C74.7633 53.0454 73.3478 53.8654 72.2105 53.2163V53.2114Z" fill="white"/>
<path d="M96.0856 8.99779L83.1357 1.21222C82.1985 0.650879 81.027 0.636236 80.0801 1.17805L50.3045 18.2233C49.3576 18.7651 48.1958 18.7651 47.2489 18.2233L17.4685 1.18293C16.5215 0.641117 15.35 0.650879 14.4128 1.2171L1.45801 8.99779C0.525694 9.55914 -0.0454102 10.5647 -0.0454102 11.6532V47.623C-0.0454102 48.6578 0.486645 49.6243 1.36039 50.1808L12.4554 57.2098C12.6849 57.3562 13.1437 57.6393 13.666 57.9664C14.774 58.6546 16.2042 57.8541 16.1945 56.5508C16.1945 55.9943 16.1945 55.4867 16.1945 55.1743L16.253 23.1534C16.253 21.4547 18.0933 20.3955 19.5674 21.2399L47.1659 37.104C48.1617 37.6751 49.382 37.6751 50.3729 37.104L77.9714 21.2399C79.4455 20.3955 81.2809 21.4547 81.2857 23.1534L81.3443 55.1743C81.3443 55.4574 81.3492 55.9748 81.3541 56.5606C81.3638 57.8541 82.7892 58.6448 83.8874 57.9566C84.3804 57.6491 84.8295 57.3708 85.0833 57.2098L96.1784 50.1808C97.0521 49.6243 97.5842 48.6627 97.5842 47.623V11.6532C97.5842 10.5647 97.0131 9.55425 96.0808 8.99779H96.0856Z" fill="white"/>
<path d="M247.686 12.8633V46.4601H241.748V12.8633H247.686Z" fill="white"/>
<path d="M222.472 46.9698C220.875 46.9698 219.437 46.6854 218.158 46.1167C216.889 45.5371 215.883 44.684 215.139 43.5576C214.406 42.4311 214.04 41.0422 214.04 39.3908C214.04 37.9691 214.303 36.7934 214.827 35.8638C215.352 34.9342 216.069 34.1905 216.976 33.6328C217.884 33.075 218.907 32.654 220.044 32.3696C221.192 32.0743 222.379 31.8611 223.604 31.7298C225.08 31.5767 226.278 31.44 227.197 31.3197C228.115 31.1885 228.782 30.9916 229.198 30.7291C229.624 30.4557 229.838 30.0347 229.838 29.466V29.3675C229.838 28.1317 229.471 27.1748 228.739 26.4967C228.006 25.8187 226.951 25.4796 225.573 25.4796C224.118 25.4796 222.964 25.7968 222.111 26.4311C221.269 27.0654 220.7 27.8146 220.405 28.6786L214.86 27.8911C215.298 26.36 216.02 25.0805 217.026 24.0524C218.032 23.0135 219.262 22.237 220.717 21.723C222.171 21.198 223.779 20.9355 225.54 20.9355C226.754 20.9355 227.962 21.0777 229.165 21.3621C230.368 21.6464 231.467 22.1167 232.462 22.7729C233.458 23.4181 234.256 24.2985 234.858 25.414C235.47 26.5295 235.776 27.9239 235.776 29.5972V46.4612H230.067V42.9998H229.871C229.51 43.6998 229.001 44.356 228.345 44.9684C227.7 45.5699 226.885 46.0566 225.901 46.4284C224.927 46.7893 223.784 46.9698 222.472 46.9698ZM224.014 42.6061C225.206 42.6061 226.24 42.371 227.115 41.9007C227.989 41.4195 228.662 40.7852 229.132 39.9978C229.614 39.2104 229.854 38.3518 229.854 37.4222V34.453C229.668 34.6061 229.351 34.7483 228.903 34.8795C228.465 35.0108 227.973 35.1256 227.426 35.224C226.879 35.3224 226.338 35.4099 225.802 35.4865C225.266 35.563 224.802 35.6287 224.408 35.6834C223.522 35.8037 222.729 36.0005 222.029 36.2739C221.329 36.5473 220.777 36.9301 220.372 37.4222C219.968 37.9034 219.765 38.5268 219.765 39.2924C219.765 40.386 220.164 41.2117 220.963 41.7695C221.761 42.3272 222.778 42.6061 224.014 42.6061Z" fill="white"/>
<path d="M195.474 46.903C193.495 46.903 191.723 46.3944 190.159 45.3773C188.595 44.3603 187.36 42.8838 186.452 40.9481C185.544 39.0123 185.09 36.661 185.09 33.8941C185.09 31.0943 185.55 28.7321 186.468 26.8073C187.398 24.8715 188.65 23.4115 190.225 22.4272C191.8 21.432 193.555 20.9344 195.491 20.9344C196.967 20.9344 198.181 21.1859 199.133 21.689C200.084 22.1811 200.839 22.7772 201.397 23.4771C201.954 24.1661 202.386 24.8168 202.693 25.4293H202.939V12.8633H208.894V46.4601H203.053V42.4901H202.693C202.386 43.1026 201.943 43.7533 201.364 44.4423C200.784 45.1203 200.019 45.7 199.067 46.1812C198.116 46.6624 196.918 46.903 195.474 46.903ZM197.131 42.0308C198.389 42.0308 199.461 41.6918 200.347 41.0137C201.233 40.3247 201.905 39.3678 202.364 38.1429C202.824 36.918 203.053 35.4908 203.053 33.8613C203.053 32.2317 202.824 30.8155 202.364 29.6125C201.916 28.4094 201.249 27.4744 200.363 26.8073C199.488 26.1401 198.411 25.8066 197.131 25.8066C195.808 25.8066 194.703 26.1511 193.818 26.8401C192.932 27.5291 192.265 28.4805 191.816 29.6945C191.368 30.9084 191.144 32.2974 191.144 33.8613C191.144 35.4361 191.368 36.8415 191.816 38.0773C192.276 39.3022 192.948 40.27 193.834 40.9809C194.731 41.6808 195.83 42.0308 197.131 42.0308Z" fill="white"/>
<path d="M169.895 46.9534C167.369 46.9534 165.187 46.4284 163.35 45.3785C161.523 44.3177 160.118 42.8194 159.134 40.8836C158.149 38.9369 157.657 36.6458 157.657 34.0101C157.657 31.4181 158.149 29.1434 159.134 27.1857C160.129 25.2172 161.518 23.6861 163.3 22.5924C165.083 21.4878 167.177 20.9355 169.583 20.9355C171.136 20.9355 172.602 21.1871 173.98 21.6902C175.369 22.1823 176.594 22.9479 177.655 23.9868C178.726 25.0258 179.568 26.3491 180.181 27.9567C180.793 29.5535 181.1 31.4564 181.1 33.6656V35.4865H160.446V31.4838H175.407C175.396 30.3464 175.15 29.3347 174.669 28.4489C174.188 27.5521 173.515 26.8467 172.651 26.3327C171.798 25.8187 170.803 25.5617 169.665 25.5617C168.452 25.5617 167.385 25.8569 166.467 26.4475C165.548 27.0271 164.832 27.7927 164.318 28.7442C163.814 29.6847 163.557 30.7182 163.547 31.8447V35.3389C163.547 36.8043 163.814 38.062 164.35 39.1119C164.886 40.1509 165.635 40.9493 166.598 41.507C167.56 42.0538 168.687 42.3272 169.977 42.3272C170.841 42.3272 171.623 42.2069 172.323 41.9663C173.023 41.7148 173.63 41.3484 174.144 40.8672C174.658 40.386 175.046 39.79 175.309 39.0791L180.853 39.7025C180.503 41.168 179.836 42.4475 178.852 43.5412C177.879 44.6239 176.632 45.466 175.112 46.0675C173.592 46.6581 171.853 46.9534 169.895 46.9534Z" fill="white"/>
<path d="M117.138 12.8633H124.585L134.559 37.2078H134.953L144.927 12.8633H152.375V46.4601H146.535V23.3787H146.223L136.938 46.3616H132.574L123.289 23.3295H122.978V46.4601H117.138V12.8633Z" fill="white"/>
</g>
<defs>
<clipPath id="clip0_2265_69855">
<rect width="248" height="59" fill="white"/>
</clipPath>
</defs>
</svg>
